<svg width="96" height="20" viewBox="0 0 96 20" fill="none" xmlns="http://www.w3.org/2000/svg">
<path d="M9.44911 2.49257C5.36901 2.49257 2.05762 5.80395 2.05762 9.88406C2.05762 13.9642 5.36901 17.2756 9.44911 17.2756H13.1449V15.7973H9.44911C6.2412 15.7973 3.53592 13.092 3.53592 9.88406C3.53592 6.67615 6.2412 3.97086 9.44911 3.97086C12.657 3.97086 15.3623 6.67615 15.3623 9.88406V10.941C15.3623 11.525 14.8375 12.1015 14.2536 12.1015C13.6697 12.1015 13.1449 11.525 13.1449 10.941V9.88406C13.1449 7.84401 11.4892 6.18831 9.44911 6.18831C7.40906 6.18831 5.75336 7.84401 5.75336 9.88406C5.75336 11.9241 7.40906 13.5798 9.44911 13.5798C10.4691 13.5798 11.4005 13.1659 12.0657 12.4933C12.5461 13.1511 13.374 13.5798 14.2536 13.5798C15.7097 13.5798 16.8406 12.3972 16.8406 10.941V9.88406C16.8406 5.80395 13.5292 2.49257 9.44911 2.49257ZM9.44911 12.1015C8.22212 12.1015 7.23166 11.111 7.23166 9.88406C7.23166 8.65707 8.22212 7.66661 9.44911 7.66661C10.6761 7.66661 11.6666 8.65707 11.6666 9.88406C11.6666 11.111 10.6761 12.1015 9.44911 12.1015Z" fill="#0B4654" fill-opacity="0.5"/>
<path d="M29.8321 14.4185C29.083 14.4185 28.4917 14.3436 28.0581 14.1938C27.6245 14.044 27.4076 13.7917 27.4076 13.4369V7.05066H31.7952V7.73659H28.1409V10.3384H31.4523V11.0007H28.1409V13.5907C28.6455 13.6853 29.221 13.7326 29.8675 13.7326C30.5771 13.7326 31.2079 13.6695 31.7598 13.5433L31.9253 14.1938C31.3577 14.3436 30.6599 14.4185 29.8321 14.4185ZM33.5862 8.77731H34.1775L34.2485 9.58151H34.3313C34.9462 8.9823 35.6006 8.6827 36.2944 8.6827C36.7281 8.6827 37.0553 8.75366 37.276 8.89557C37.5047 9.02961 37.6466 9.25825 37.7018 9.58151H37.7846C38.3838 8.9823 39.0421 8.6827 39.7596 8.6827C40.2642 8.6827 40.6347 8.77731 40.8713 8.96653C41.1078 9.15576 41.226 9.49478 41.226 9.9836V14.3121H40.5046V9.46324C40.2445 9.37651 39.9567 9.33315 39.6413 9.33315C39.2865 9.33315 38.9435 9.40017 38.6124 9.5342C38.2892 9.66035 38.0053 9.84563 37.7609 10.09V14.3121H37.0513V9.46324C36.7911 9.37651 36.5034 9.33315 36.188 9.33315C35.8253 9.33315 35.4784 9.40017 35.1473 9.5342C34.824 9.66823 34.5402 9.85745 34.2958 10.1019V14.3121H33.5862V8.77731ZM44.2389 14.4185C43.7264 14.4185 43.3322 14.2963 43.0563 14.0519C42.7882 13.7996 42.6542 13.4606 42.6542 13.0348C42.6542 12.4435 42.871 12.002 43.3046 11.7103C43.7383 11.4107 44.3453 11.2609 45.1259 11.2609C45.3861 11.2609 45.6896 11.2766 46.0365 11.3082V10.504C46.0365 10.0309 45.9419 9.70765 45.7527 9.5342C45.5635 9.35286 45.2323 9.26219 44.7593 9.26219C44.4281 9.26219 44.1246 9.2819 43.8486 9.32132L43.7304 10.1728H43.1982C43.1115 9.92841 43.0681 9.68794 43.0681 9.45142V9.22671C43.3204 9.0848 43.6279 8.95865 43.9906 8.84827C44.3611 8.73789 44.712 8.6827 45.0431 8.6827C45.5871 8.6827 46.0089 8.8325 46.3085 9.1321C46.6081 9.42382 46.7579 9.84563 46.7579 10.3975V14.3121H46.143L46.0956 13.5315H46.001C45.796 13.8075 45.5398 14.0243 45.2323 14.182C44.9327 14.3397 44.6016 14.4185 44.2389 14.4185ZM44.3572 13.839C44.7041 13.839 45.0273 13.7562 45.3269 13.5907C45.6265 13.4251 45.8749 13.1964 46.072 12.9047V11.8522C45.7172 11.7891 45.323 11.7576 44.8894 11.7576C44.369 11.7576 43.963 11.8009 43.6712 11.8877C43.5766 12.069 43.5057 12.2424 43.4584 12.408C43.4189 12.5657 43.3992 12.7392 43.3992 12.9284C43.3992 13.2674 43.4781 13.5039 43.6358 13.638C43.8013 13.772 44.0418 13.839 44.3572 13.839ZM48.5655 6.66039H49.3106V7.76024H48.5655V6.66039ZM48.5773 8.78914H49.2751V14.3121H48.5773V8.78914ZM52.0032 14.3948C51.814 14.3239 51.6169 14.1859 51.4119 13.9809C51.2148 13.7759 51.1162 13.5867 51.1162 13.4133V6.40021H51.814V13.295C51.814 13.4211 51.8179 13.5197 51.8258 13.5907C51.8416 13.6537 51.8692 13.7207 51.9086 13.7917H52.0742L52.8074 13.4369L53.1149 13.8272C52.9887 13.977 52.8271 14.1031 52.63 14.2056C52.4329 14.3081 52.224 14.3712 52.0032 14.3948ZM59.0681 14.4185C58.5556 14.4185 58.1614 14.2963 57.8855 14.0519C57.6174 13.7996 57.4834 13.4606 57.4834 13.0348C57.4834 12.4435 57.7002 12.002 58.1338 11.7103C58.5674 11.4107 59.1745 11.2609 59.9551 11.2609C60.2152 11.2609 60.5188 11.2766 60.8657 11.3082V10.504C60.8657 10.0309 60.7711 9.70765 60.5819 9.5342C60.3926 9.35286 60.0615 9.26219 59.5885 9.26219C59.2573 9.26219 58.9538 9.2819 58.6778 9.32132L58.5596 10.1728H58.0274C57.9406 9.92841 57.8973 9.68794 57.8973 9.45142V9.22671C58.1496 9.0848 58.4571 8.95865 58.8197 8.84827C59.1903 8.73789 59.5411 8.6827 59.8723 8.6827C60.4163 8.6827 60.8381 8.8325 61.1377 9.1321C61.4373 9.42382 61.5871 9.84563 61.5871 10.3975V14.3121H60.9721L60.9248 13.5315H60.8302C60.6252 13.8075 60.369 14.0243 60.0615 14.182C59.7619 14.3397 59.4308 14.4185 59.0681 14.4185ZM59.1864 13.839C59.5333 13.839 59.8565 13.7562 60.1561 13.5907C60.4557 13.4251 60.7041 13.1964 60.9012 12.9047V11.8522C60.5464 11.7891 60.1522 11.7576 59.7185 11.7576C59.1982 11.7576 58.7921 11.8009 58.5004 11.8877C58.4058 12.069 58.3349 12.2424 58.2875 12.408C58.2481 12.5657 58.2284 12.7392 58.2284 12.9284C58.2284 13.2674 58.3073 13.5039 58.4649 13.638C58.6305 13.772 58.871 13.839 59.1864 13.839ZM65.2041 14.4185C64.463 14.4185 63.9269 14.1741 63.5957 13.6853C63.2646 13.1886 63.099 12.4711 63.099 11.5329C63.099 10.7208 63.2646 10.0427 63.5957 9.49872C63.9269 8.95471 64.4472 8.6827 65.1568 8.6827C65.8112 8.6827 66.3907 8.935 66.8953 9.43959H66.9781L66.9308 8.54078V6.40021H67.6404V14.3121H67.0372L66.9899 13.5315H66.8953C66.4538 14.1228 65.8901 14.4185 65.2041 14.4185ZM65.3815 13.7917C65.7442 13.7917 66.0556 13.701 66.3158 13.5197C66.5839 13.3305 66.7889 13.0979 66.9308 12.8219V10.0309C66.6785 9.77861 66.4301 9.59727 66.1857 9.48689C65.9413 9.36863 65.6693 9.3095 65.3697 9.3095C64.8415 9.3095 64.4551 9.50266 64.2107 9.88899C63.9663 10.2674 63.8441 10.8272 63.8441 11.5683C63.8441 12.3331 63.9545 12.8968 64.1752 13.2595C64.4039 13.6143 64.806 13.7917 65.3815 13.7917ZM71.3483 14.4185C70.6072 14.4185 70.0711 14.1741 69.7399 13.6853C69.4088 13.1886 69.2432 12.4711 69.2432 11.5329C69.2432 10.7208 69.4088 10.0427 69.7399 9.49872C70.0711 8.95471 70.5914 8.6827 71.301 8.6827C71.9554 8.6827 72.5349 8.935 73.0395 9.43959H73.1223L73.075 8.54078V6.40021H73.7846V14.3121H73.1814L73.1341 13.5315H73.0395C72.598 14.1228 72.0342 14.4185 71.3483 14.4185ZM71.5257 13.7917C71.8884 13.7917 72.1998 13.701 72.46 13.5197C72.7281 13.3305 72.9331 13.0979 73.075 12.8219V10.0309C72.8227 9.77861 72.5743 9.59727 72.3299 9.48689C72.0855 9.36863 71.8135 9.3095 71.5139 9.3095C70.9856 9.3095 70.5993 9.50266 70.3549 9.88899C70.1105 10.2674 69.9883 10.8272 69.9883 11.5683C69.9883 12.3331 70.0987 12.8968 70.3194 13.2595C70.5481 13.6143 70.9502 13.7917 71.5257 13.7917ZM75.6831 8.80096H76.2626L76.3217 9.86534H76.4281C76.6095 9.51843 76.8618 9.24248 77.185 9.03749C77.5161 8.8325 77.867 8.73001 78.2376 8.73001C78.2927 8.73001 78.3598 8.76154 78.4386 8.82462C78.5253 8.87981 78.5845 8.935 78.616 8.99019L78.5332 9.54603H78.0483C77.6462 9.54603 77.2993 9.6367 77.0076 9.81803C76.7238 9.99937 76.5188 10.2556 76.3926 10.5867V14.3121H75.6831V8.80096ZM82.038 14.4185C80.4454 14.4185 79.6491 13.4724 79.6491 11.5802C79.6491 10.6735 79.8501 9.96389 80.2522 9.45142C80.6622 8.93894 81.2574 8.6827 82.038 8.6827C82.6845 8.6827 83.1812 8.87586 83.5281 9.26219C83.875 9.64852 84.0485 10.1847 84.0485 10.8706C84.0485 10.9494 84.0406 11.0756 84.0248 11.249L83.4217 11.8522L80.3468 11.8285C80.3626 12.4829 80.5084 12.9757 80.7844 13.3068C81.0682 13.6301 81.4979 13.7917 82.0735 13.7917C82.4204 13.7917 82.716 13.7562 82.9604 13.6853C83.2049 13.6064 83.4572 13.4882 83.7173 13.3305L83.9539 13.8863C83.6621 14.0598 83.3704 14.1938 83.0787 14.2884C82.7949 14.3751 82.448 14.4185 82.038 14.4185ZM83.3152 11.249C83.3625 11.0598 83.3862 10.8706 83.3862 10.6814C83.3862 10.2556 83.2679 9.92053 83.0314 9.67612C82.7949 9.4317 82.448 9.3095 81.9907 9.3095C81.4072 9.3095 80.9933 9.47113 80.7489 9.79438C80.5045 10.1176 80.3665 10.6183 80.335 11.2963L83.3152 11.249ZM87.0123 14.4185C86.3263 14.4185 85.7193 14.2845 85.191 14.0164L85.4157 13.4369C85.9361 13.6892 86.4959 13.8154 87.0951 13.8154C87.505 13.8154 87.8559 13.768 88.1476 13.6734C88.2422 13.4448 88.2895 13.1925 88.2895 12.9165C88.2895 12.6879 88.258 12.5145 88.1949 12.3962C88.1318 12.27 88.0175 12.1675 87.8519 12.0887C87.6943 12.0099 87.4499 11.935 87.1187 11.864C86.488 11.7221 86.0149 11.5368 85.6995 11.3082C85.3921 11.0795 85.2383 10.7365 85.2383 10.2793C85.2383 9.82986 85.3999 9.45142 85.7232 9.14393C86.0543 8.83644 86.551 8.6827 87.2133 8.6827C87.8046 8.6827 88.3092 8.79702 88.7271 9.02566V9.32132C88.7271 9.56574 88.6798 9.81803 88.5852 10.0782H88.1121L88.0293 9.32132C87.7692 9.2819 87.4814 9.26219 87.166 9.26219C86.7166 9.26219 86.3973 9.33315 86.2081 9.47507C86.0189 9.6091 85.9242 9.8338 85.9242 10.1492C85.9242 10.3542 85.9637 10.5197 86.0425 10.6459C86.1214 10.772 86.2554 10.8824 86.4446 10.977C86.6417 11.0637 86.9216 11.1505 87.2843 11.2372C87.6943 11.3318 88.0175 11.4382 88.254 11.5565C88.4985 11.6748 88.6798 11.8325 88.7981 12.0296C88.9163 12.2188 88.9755 12.4711 88.9755 12.7865C88.9755 13.2437 88.8178 13.6301 88.5024 13.9454C88.1949 14.2608 87.6982 14.4185 87.0123 14.4185ZM91.9669 14.4185C91.281 14.4185 90.6739 14.2845 90.1456 14.0164L90.3703 13.4369C90.8907 13.6892 91.4505 13.8154 92.0497 13.8154C92.4597 13.8154 92.8105 13.768 93.1022 13.6734C93.1968 13.4448 93.2441 13.1925 93.2441 12.9165C93.2441 12.6879 93.2126 12.5145 93.1495 12.3962C93.0865 12.27 92.9721 12.1675 92.8066 12.0887C92.6489 12.0099 92.4045 11.935 92.0733 11.864C91.4426 11.7221 90.9695 11.5368 90.6542 11.3082C90.3467 11.0795 90.1929 10.7365 90.1929 10.2793C90.1929 9.82986 90.3546 9.45142 90.6778 9.14393C91.009 8.83644 91.5057 8.6827 92.1679 8.6827C92.7593 8.6827 93.2638 8.79702 93.6817 9.02566V9.32132C93.6817 9.56574 93.6344 9.81803 93.5398 10.0782H93.0667L92.984 9.32132C92.7238 9.2819 92.436 9.26219 92.1206 9.26219C91.6712 9.26219 91.3519 9.33315 91.1627 9.47507C90.9735 9.6091 90.8789 9.8338 90.8789 10.1492C90.8789 10.3542 90.9183 10.5197 90.9971 10.6459C91.076 10.772 91.21 10.8824 91.3992 10.977C91.5963 11.0637 91.8762 11.1505 92.2389 11.2372C92.6489 11.3318 92.9721 11.4382 93.2087 11.5565C93.4531 11.6748 93.6344 11.8325 93.7527 12.0296C93.8709 12.2188 93.9301 12.4711 93.9301 12.7865C93.9301 13.2437 93.7724 13.6301 93.457 13.9454C93.1495 14.2608 92.6528 14.4185 91.9669 14.4185Z" fill="black" fill-opacity="0.5"/>
</svg>
