<svg width="77" height="20" viewBox="0 0 77 20" fill="none" xmlns="http://www.w3.org/2000/svg">
<path d="M15.4084 14.7395C16.2045 13.7816 16.7582 12.6461 17.0227 11.429C17.2871 10.2118 17.2546 8.94891 16.9277 7.74703C16.6009 6.54515 15.9893 5.43967 15.1449 4.52411C14.3004 3.60855 13.2479 2.90985 12.0763 2.48711C10.9047 2.06437 9.64848 1.93003 8.41398 2.09545C7.17948 2.26088 6.00298 2.72119 4.984 3.43747C3.96503 4.15374 3.13356 5.1049 2.55993 6.21048C1.9863 7.31606 1.68739 8.54353 1.68848 9.78907C1.6889 11.5997 2.32696 13.3524 3.49071 14.7395L3.47962 14.7489C3.51843 14.7955 3.56278 14.8354 3.60269 14.8814C3.65258 14.9385 3.70636 14.9923 3.75791 15.0477C3.91313 15.2163 4.07279 15.3781 4.24021 15.53C4.29121 15.5766 4.34387 15.6198 4.39543 15.6642C4.57282 15.8172 4.75521 15.9624 4.94425 16.0977C4.96864 16.1143 4.99081 16.136 5.01521 16.1531V16.1465C6.31358 17.0602 7.86247 17.5505 9.4501 17.5505C11.0377 17.5505 12.5866 17.0602 13.885 16.1465V16.1531C13.9094 16.136 13.931 16.1143 13.956 16.0977C14.1444 15.9619 14.3274 15.8172 14.5048 15.6642C14.5563 15.6198 14.609 15.576 14.66 15.53C14.8274 15.3776 14.9871 15.2163 15.1423 15.0477C15.1938 14.9923 15.2471 14.9385 15.2975 14.8814C15.3369 14.8354 15.3818 14.7955 15.4206 14.7484L15.4084 14.7395ZM9.44955 5.35417C9.94294 5.35417 10.4252 5.50048 10.8355 5.77459C11.2457 6.0487 11.5655 6.43831 11.7543 6.89415C11.9431 7.34998 11.9925 7.85157 11.8962 8.33548C11.8 8.81939 11.5624 9.26389 11.2135 9.61277C10.8646 9.96165 10.4201 10.1992 9.93622 10.2955C9.45231 10.3918 8.95073 10.3423 8.49489 10.1535C8.03906 9.96472 7.64945 9.64498 7.37534 9.23474C7.10123 8.8245 6.95492 8.34219 6.95492 7.8488C6.95492 7.18718 7.21774 6.55266 7.68558 6.08483C8.15341 5.617 8.78793 5.35417 9.44955 5.35417ZM5.01853 14.7395C5.02815 14.0116 5.32396 13.3168 5.84196 12.8053C6.35996 12.2938 7.0585 12.0069 7.78646 12.0065H11.1126C11.8406 12.0069 12.5391 12.2938 13.0571 12.8053C13.5751 13.3168 13.8709 14.0116 13.8806 14.7395C12.6648 15.8351 11.0862 16.4415 9.44955 16.4415C7.81293 16.4415 6.23434 15.8351 5.01853 14.7395Z" fill="#0B4654" fill-opacity="0.5"/>
<path d="M27.4195 6.89506H31.9017V7.58099H28.1645V10.2064H31.2985V10.8687H28.1645V14.1801H27.4195V6.89506ZM34.6124 14.2866C34.1157 14.2866 33.7451 14.188 33.5007 13.9909C33.2642 13.7859 33.1459 13.4548 33.1459 12.9975V8.64536H33.8555V13.5178C34.1394 13.6046 34.4311 13.6479 34.7307 13.6479C35.1249 13.6479 35.4836 13.573 35.8069 13.4232C36.138 13.2655 36.4179 13.0566 36.6465 12.7964V8.64536H37.3561V14.1801H36.753L36.7057 13.3286H36.6111C36.3194 13.644 36.0158 13.8845 35.7004 14.05C35.3851 14.2077 35.0224 14.2866 34.6124 14.2866ZM40.0613 14.2629C39.8721 14.1919 39.675 14.054 39.47 13.849C39.2729 13.644 39.1743 13.4548 39.1743 13.2813V6.26826H39.8721V13.163C39.8721 13.2892 39.876 13.3877 39.8839 13.4587C39.8997 13.5218 39.9273 13.5888 39.9667 13.6598H40.1323L40.8655 13.305L41.173 13.6952C41.0469 13.845 40.8852 13.9712 40.6881 14.0737C40.491 14.1762 40.2821 14.2392 40.0613 14.2629ZM43.2258 14.2629C43.0366 14.1919 42.8395 14.054 42.6345 13.849C42.4374 13.644 42.3388 13.4548 42.3388 13.2813V6.26826H43.0366V13.163C43.0366 13.2892 43.0405 13.3877 43.0484 13.4587C43.0642 13.5218 43.0918 13.5888 43.1312 13.6598H43.2968L44.03 13.305L44.3375 13.6952C44.2113 13.845 44.0497 13.9712 43.8526 14.0737C43.6555 14.1762 43.4466 14.2392 43.2258 14.2629ZM49.1435 6.91871H49.9832L53.7676 13.0448L53.8623 13.0211L53.7558 10.7741V6.91871H54.5009V14.1801H53.6612L49.8768 8.05405L49.794 8.0777L49.8886 10.3247V14.1801H49.1435V6.91871ZM57.5898 14.2866C57.0773 14.2866 56.6831 14.1643 56.4072 13.9199C56.1391 13.6676 56.0051 13.3286 56.0051 12.9029C56.0051 12.3115 56.2219 11.87 56.6555 11.5783C57.0891 11.2787 57.6962 11.1289 58.4768 11.1289C58.737 11.1289 59.0405 11.1447 59.3874 11.1762V10.372C59.3874 9.89896 59.2928 9.57571 59.1036 9.40225C58.9143 9.22092 58.5832 9.13025 58.1102 9.13025C57.779 9.13025 57.4755 9.14996 57.1995 9.18938L57.0813 10.0409H56.5491C56.4623 9.79647 56.419 9.556 56.419 9.31947V9.09477C56.6713 8.95285 56.9788 8.8267 57.3414 8.71632C57.712 8.60594 58.0628 8.55075 58.394 8.55075C58.938 8.55075 59.3598 8.70055 59.6594 9.00016C59.959 9.29187 60.1088 9.71368 60.1088 10.2656V14.1801H59.4938L59.4465 13.3996H59.3519C59.1469 13.6755 58.8907 13.8923 58.5832 14.05C58.2836 14.2077 57.9525 14.2866 57.5898 14.2866ZM57.7081 13.7071C58.055 13.7071 58.3782 13.6243 58.6778 13.4587C58.9774 13.2931 59.2258 13.0645 59.4229 12.7728V11.7202C59.0681 11.6572 58.6739 11.6256 58.2402 11.6256C57.7199 11.6256 57.3138 11.669 57.0221 11.7557C56.9275 11.937 56.8566 12.1105 56.8093 12.2761C56.7698 12.4338 56.7501 12.6072 56.7501 12.7964C56.7501 13.1355 56.829 13.372 56.9866 13.506C57.1522 13.64 57.3927 13.7071 57.7081 13.7071ZM61.9164 8.64536H62.5077L62.5787 9.44956H62.6615C63.2764 8.85036 63.9308 8.55075 64.6246 8.55075C65.0583 8.55075 65.3855 8.62171 65.6062 8.76363C65.8349 8.89766 65.9768 9.1263 66.032 9.44956H66.1148C66.714 8.85036 67.3723 8.55075 68.0898 8.55075C68.5944 8.55075 68.9649 8.64536 69.2015 8.83459C69.438 9.02381 69.5562 9.36283 69.5562 9.85166V14.1801H68.8348V9.33129C68.5747 9.24457 68.2869 9.2012 67.9715 9.2012C67.6167 9.2012 67.2738 9.26822 66.9426 9.40225C66.6194 9.5284 66.3355 9.71368 66.0911 9.95809V14.1801H65.3815V9.33129C65.1214 9.24457 64.8336 9.2012 64.5182 9.2012C64.1555 9.2012 63.8086 9.26822 63.4775 9.40225C63.1542 9.53629 62.8704 9.72551 62.626 9.96992V14.1801H61.9164V8.64536ZM73.4916 14.2866C71.899 14.2866 71.1026 13.3404 71.1026 11.4482C71.1026 10.5415 71.3037 9.83195 71.7058 9.31947C72.1158 8.80699 72.711 8.55075 73.4916 8.55075C74.1381 8.55075 74.6348 8.74392 74.9817 9.13025C75.3286 9.51657 75.5021 10.0527 75.5021 10.7386C75.5021 10.8175 75.4942 10.9436 75.4784 11.1171L74.8753 11.7202L71.8004 11.6966C71.8162 12.351 71.962 12.8437 72.238 13.1749C72.5218 13.4981 72.9515 13.6598 73.5271 13.6598C73.874 13.6598 74.1696 13.6243 74.414 13.5533C74.6584 13.4745 74.9107 13.3562 75.1709 13.1985L75.4074 13.7544C75.1157 13.9278 74.824 14.0619 74.5323 14.1565C74.2485 14.2432 73.9016 14.2866 73.4916 14.2866ZM74.7688 11.1171C74.8161 10.9279 74.8398 10.7386 74.8398 10.5494C74.8398 10.1237 74.7215 9.78858 74.485 9.54417C74.2485 9.29976 73.9016 9.17755 73.4443 9.17755C72.8608 9.17755 72.4469 9.33918 72.2025 9.66243C71.9581 9.98569 71.8201 10.4863 71.7886 11.1644L74.7688 11.1171Z" fill="black" fill-opacity="0.5"/>
</svg>
